<svg width="1055" height="1082" viewBox="0 0 1055 1082" fill="none" xmlns="http://www.w3.org/2000/svg">
<rect x="158" y="1" width="897" height="1080" fill="#58A1E4"/>
<path d="M102.824 1080.84L75.4304 1050.72C48.0373 1020.61 -6.74885 960.387 2.66388 900.394C11.7328 840.4 85.8601 780.641 113.321 720.714C141.297 660.788 122.607 600.694 95.5798 540.569C68.0373 480.443 32.1584 420.286 45.8683 360.309C60.0937 300.334 123.908 240.537 133.578 180.545C143.249 120.553 97.0571 60.3598 74.5627 30.2651L51.7246 0.169123L189.232 0.66599L189.124 30.679C189.015 60.692 188.798 120.718 188.582 180.744C188.365 240.77 188.148 300.796 187.931 360.822C187.714 420.848 187.497 480.874 187.28 540.9C187.063 600.926 186.846 660.953 186.63 720.979C186.413 781.005 186.196 841.031 185.979 901.057C185.762 961.083 185.545 1021.11 185.437 1051.12L185.328 1081.13L102.824 1080.84Z" fill="#58A1E4"/>
</svg>
